<svg xmlns="http://www.w3.org/2000/svg" viewBox="0 0 32 32" fill="none">
  <!-- Body -->
  <ellipse cx="16" cy="17" rx="8" ry="6.5" fill="#f97316"/>

  <!-- Eyes -->
  <circle cx="12.5" cy="11.5" r="2.2" fill="#f97316"/>
  <circle cx="19.5" cy="11.5" r="2.2" fill="#f97316"/>
  <circle cx="12.5" cy="11.2" r="1.4" fill="white"/>
  <circle cx="19.5" cy="11.2" r="1.4" fill="white"/>
  <circle cx="12.8" cy="10.9" r="0.7" fill="#102a43"/>
  <circle cx="19.8" cy="10.9" r="0.7" fill="#102a43"/>

  <!-- Left claw -->
  <path d="M8 15 Q4 13 3 10 Q2.5 8.5 4 8 Q5.5 7.5 6 9" stroke="#f97316" stroke-width="1.8" stroke-linecap="round" fill="none"/>

  <!-- Right claw -->
  <path d="M24 15 Q28 13 29 10 Q29.5 8.5 28 8 Q26.5 7.5 26 9" stroke="#f97316" stroke-width="1.8" stroke-linecap="round" fill="none"/>

  <!-- Legs -->
  <path d="M9 17 Q5 18.5 4 21" stroke="#ea580c" stroke-width="1.3" stroke-linecap="round" fill="none"/>
  <path d="M9 19 Q5 21 4.5 24" stroke="#ea580c" stroke-width="1.3" stroke-linecap="round" fill="none"/>
  <path d="M23 17 Q27 18.5 28 21" stroke="#ea580c" stroke-width="1.3" stroke-linecap="round" fill="none"/>
  <path d="M23 19 Q27 21 27.5 24" stroke="#ea580c" stroke-width="1.3" stroke-linecap="round" fill="none"/>

  <!-- Smile -->
  <path d="M13 19 Q16 21.5 19 19" stroke="#c2410c" stroke-width="0.8" stroke-linecap="round" fill="none"/>
</svg>
