<svg xmlns="http://www.w3.org/2000/svg" viewBox="0 0 120 120" fill="none">
  <!-- Body -->
  <ellipse cx="60" cy="62" rx="30" ry="24" fill="#f97316"/>
  <ellipse cx="60" cy="62" rx="30" ry="24" fill="url(#bodyGrad)"/>

  <!-- Body shine -->
  <ellipse cx="55" cy="54" rx="16" ry="10" fill="#fb923c" opacity="0.5"/>

  <!-- Eyes -->
  <circle cx="47" cy="42" r="8" fill="#f97316"/>
  <circle cx="73" cy="42" r="8" fill="#f97316"/>
  <circle cx="47" cy="41" r="5" fill="white"/>
  <circle cx="73" cy="41" r="5" fill="white"/>
  <circle cx="48" cy="40" r="2.5" fill="#102a43"/>
  <circle cx="74" cy="40" r="2.5" fill="#102a43"/>
  <!-- Eye shine -->
  <circle cx="49" cy="39" r="1" fill="white"/>
  <circle cx="75" cy="39" r="1" fill="white"/>

  <!-- Eye stalks -->
  <rect x="45" y="44" width="4" height="6" rx="2" fill="#ea580c"/>
  <rect x="71" y="44" width="4" height="6" rx="2" fill="#ea580c"/>

  <!-- Left claw -->
  <path d="M30 55 Q18 48 12 38 Q9 33 14 31 Q19 29 22 34 Q24 37 26 40" stroke="#f97316" stroke-width="5" stroke-linecap="round" fill="none"/>
  <path d="M12 38 Q8 42 6 38 Q4 34 9 32" stroke="#f97316" stroke-width="4" stroke-linecap="round" fill="none"/>
  <circle cx="7" cy="37" r="3" fill="#fb923c"/>
  <circle cx="12" cy="31" r="3" fill="#fb923c"/>

  <!-- Right claw -->
  <path d="M90 55 Q102 48 108 38 Q111 33 106 31 Q101 29 98 34 Q96 37 94 40" stroke="#f97316" stroke-width="5" stroke-linecap="round" fill="none"/>
  <path d="M108 38 Q112 42 114 38 Q116 34 111 32" stroke="#f97316" stroke-width="4" stroke-linecap="round" fill="none"/>
  <circle cx="113" cy="37" r="3" fill="#fb923c"/>
  <circle cx="108" cy="31" r="3" fill="#fb923c"/>

  <!-- Legs left -->
  <path d="M34 62 Q22 65 16 72" stroke="#ea580c" stroke-width="3.5" stroke-linecap="round" fill="none"/>
  <path d="M32 68 Q20 73 15 80" stroke="#ea580c" stroke-width="3.5" stroke-linecap="round" fill="none"/>
  <path d="M32 74 Q22 80 18 88" stroke="#ea580c" stroke-width="3.5" stroke-linecap="round" fill="none"/>

  <!-- Legs right -->
  <path d="M86 62 Q98 65 104 72" stroke="#ea580c" stroke-width="3.5" stroke-linecap="round" fill="none"/>
  <path d="M88 68 Q100 73 105 80" stroke="#ea580c" stroke-width="3.5" stroke-linecap="round" fill="none"/>
  <path d="M88 74 Q98 80 102 88" stroke="#ea580c" stroke-width="3.5" stroke-linecap="round" fill="none"/>

  <!-- Mouth / smile -->
  <path d="M50 68 Q60 75 70 68" stroke="#c2410c" stroke-width="2" stroke-linecap="round" fill="none"/>

  <defs>
    <radialGradient id="bodyGrad" cx="0.4" cy="0.3" r="0.7">
      <stop offset="0%" stop-color="#fb923c" stop-opacity="0.4"/>
      <stop offset="100%" stop-color="#ea580c" stop-opacity="0.2"/>
    </radialGradient>
  </defs>
</svg>
